<svg xmlns="http://www.w3.org/2000/svg" width="24" height="24" viewBox="0 0 24 24" fill="none" stroke="currentColor" stroke-width="2" stroke-linecap="round" stroke-linejoin="round" class="lucide lucide-brain-circuit"><path d="M12 2a2.5 2.5 0 0 0-2.5 2.5v.1a2.5 2.5 0 0 0 2.5 2.5h.1a2.5 2.5 0 0 0 2.5-2.5v-.1A2.5 2.5 0 0 0 12.1 2h-.1Z"/><path d="M12 15a2.5 2.5 0 0 0-2.5 2.5v.1a2.5 2.5 0 0 0 2.5 2.5h.1a2.5 2.5 0 0 0 2.5-2.5v-.1a2.5 2.5 0 0 0-2.5-2.5h-.1Z"/><path d="M20 9a2 2 0 0 0-2-2h-2"/><path d="M4 9a2 2 0 0 1 2-2h2"/><path d="M12 7v4"/><path d="M12 11h4a2 2 0 0 1 2 2v1a2 2 0 0 1-2 2h-4"/><path d="M12 11H8a2 2 0 0 0-2 2v1a2 2 0 0 0 2 2h4"/><path d="M16 15v1a2 2 0 0 0 2 2h2"/><path d="M8 15v1a2 2 0 0 1-2 2H4"/></svg>