<svg xmlns="http://www.w3.org/2000/svg" width="24" height="24" viewBox="0 0 24 24" fill="none" stroke="#8B5CF6" stroke-width="2" stroke-linecap="round" stroke-linejoin="round"><path d="M12 5a3 3 0 1 0-5.993.119"/><path d="M18.648 12.152A3 3 0 1 0 12.53 18"/><path d="M12 5a3 3 0 1 0 5.993.119"/><path d="M6.007 12.119A3 3 0 1 0 12.13 6"/><path d="M14.64 18.04A3 3 0 1 0 18 13"/><path d="M12 18a3 3 0 1 0-5.993-.119"/><path d="M6.007 11.881A3 3 0 1 0 12.13 18"/><path d="M12 5a3 3 0 1 0-5.993.119"/><path d="M12 5a3 3 0 1 0 5.993.119"/><circle cx="12" cy="12" r="3"/><path d="M12 9v-1"/><path d="M12 15v1"/><path d="M15 12h1"/><path d="M9 12H8"/><path d="m14.642 9.358.707-.707"/><path d="m8.652 15.348.707-.707"/><path d="m14.642 14.642.707.707"/><path d="m8.652 8.652.707.707"/></svg>