<svg width="256" height="256" viewBox="0 0 256 256" fill="none" xmlns="http://www.w3.org/2000/svg">
  <defs>
    <linearGradient id="favicon-gradient" x1="0%" y1="0%" x2="100%" y2="100%">
      <stop offset="0%" style="stop-color:hsl(253, 100%, 75%);" />
      <stop offset="100%" style="stop-color:hsl(253, 90%, 60%);" />
    </linearGradient>
  </defs>
  <rect width="256" height="256" rx="50" fill="url(#favicon-gradient)"/>
  <g transform="translate(32, 32) scale(8, 8)">
    <path d="M12 5a3 3 0 1 0-5.997.125 4 4 0 0 0-2.5 3.765 4 4 0 0 0 .5 7.625A3 3 0 1 0 7 19.5a4 4 0 0 0 4.5 3.969 4 4 0 0 0 4.5-3.969A3 3 0 1 0 19 16.5a4 4 0 0 0 .5-7.625 4 4 0 0 0-2.5-3.765A3 3 0 1 0 12 5Z" stroke="white" stroke-width="0.75" stroke-linecap="round" stroke-linejoin="round"/>
    <path d="M12 12v1.5" stroke="white" stroke-width="0.75" stroke-linecap="round" stroke-linejoin="round"/>
    <path d="M12 6.5V5" stroke="white" stroke-width="0.75" stroke-linecap="round" stroke-linejoin="round"/>
    <path d="M16.5 14.5v-2" stroke="white" stroke-width="0.75" stroke-linecap="round" stroke-linejoin="round"/>
    <path d="M19.5 12h-2" stroke="white" stroke-width="0.75" stroke-linecap="round" stroke-linejoin="round"/>
    <path d="M7.5 9.5v2" stroke="white" stroke-width="0.75" stroke-linecap="round" stroke-linejoin="round"/>
    <path d="M4.5 12h2" stroke="white" stroke-width="0.75" stroke-linecap="round" stroke-linejoin="round"/>
    <path d="m14.5 17.5 1-1" stroke="white" stroke-width="0.75" stroke-linecap="round" stroke-linejoin="round"/>
    <path d="m9.5 17.5-1-1" stroke="white" stroke-width="0.75" stroke-linecap="round" stroke-linejoin="round"/>
    <path d="m14.5 6.5 1 1" stroke="white" stroke-width="0.75" stroke-linecap="round" stroke-linejoin="round"/>
    <path d="m9.5 6.5-1 1" stroke="white" stroke-width="0.75" stroke-linecap="round" stroke-linejoin="round"/>
  </g>
</svg>
