<svg xmlns="http://www.w3.org/2000/svg" width="24" height="24" viewBox="0 0 24 24" fill="none" stroke="currentColor" stroke-width="1.5" stroke-linecap="round" stroke-linejoin="round" class="lucide lucide-brain-circuit"><path d="M12 5a3 3 0 1 0-5.997.125 4 4 0 0 0-2.5 3.765 4 4 0 0 0 .5 7.625A3 3 0 1 0 7 19.5a4 4 0 0 0 4.5 3.969 4 4 0 0 0 4.5-3.969A3 3 0 1 0 19 16.5a4 4 0 0 0 .5-7.625 4 4 0 0 0-2.5-3.765A3 3 0 1 0 12 5Z"/><path d="M12 12v1.5"/><path d="M12 6.5V5"/><path d="M16.5 14.5v-2"/><path d="M19.5 12h-2"/><path d="M7.5 9.5v2"/><path d="M4.5 12h2"/><path d="m14.5 17.5 1-1"/><path d="m9.5 17.5-1-1"/><path d="m14.5 6.5 1 1"/><path d="m9.5 6.5-1 1"/></svg>